<svg xmlns="http://www.w3.org/2000/svg" xmlns:xlink="http://www.w3.org/1999/xlink"><symbol id="sprite-additional-logo" viewBox="0 0 55.5 60">
  <path d="M52.3,12.2h-7c0.5-0.7,0.8-1.4,1.1-2.2c0.6-2,0.4-4.1-0.6-5.9c-1-1.8-2.6-3.1-4.6-3.7c-2-0.6-4.1-0.4-5.9,0.6
  c-3.6,2-6.2,6.1-7.6,9c-1.4-2.9-4-7.1-7.6-9c-3.8-2-8.5-0.6-10.5,3.1c-1.4,2.7-1.2,5.8,0.5,8.1h-7c-1.7,0-3.1,1.4-3.1,3.1v9.4
  c0,1.7,1.4,3.1,3.1,3.1H4v26.1c0,3.3,2.7,6,6,6h35.5c3.3,0,6-2.7,6-6V27.8h0.8c1.7,0,3.1-1.4,3.1-3.1v-9.4
  C55.5,13.6,54.1,12.2,52.3,12.2z M36.5,3c1.3-0.7,2.7-0.8,4.1-0.4C41.9,3,43,3.9,43.7,5.2c0.7,1.3,0.8,2.7,0.4,4.1
  c-0.4,1.2-1.1,2.2-2.2,2.9H29.4C30.5,9.6,33,5,36.5,3z M11.7,5.2C13.2,2.6,16.4,1.6,19,3c3.5,1.9,6,6.6,7.1,9.1H13.5
  C11.2,10.7,10.4,7.6,11.7,5.2z M26.5,27.8v13.7H6.4V27.8H26.5z M6.4,53.9v-10h20.2v13.7H10C8,57.6,6.4,55.9,6.4,53.9z M45.5,57.6
  H28.9V43.9h20.2v10C49.1,55.9,47.5,57.6,45.5,57.6z M49.1,41.5H28.9V27.8h20.2V41.5z M53.1,24.7c0,0.4-0.3,0.7-0.7,0.7h-2
  c0,0,0,0,0,0s0,0,0,0H27.7c0,0,0,0,0,0s0,0,0,0H5.2c0,0,0,0,0,0s0,0,0,0h-2c-0.4,0-0.7-0.3-0.7-0.7v-9.4c0-0.4,0.3-0.7,0.7-0.7h49.2
  c0.4,0,0.7,0.3,0.7,0.7V24.7z"/>
</symbol><symbol id="sprite-facebook" viewBox="0 0 10 19">
  <g>
    <path d="M7.1,19H2v-8.8H0V5.8h1.9c-0.1-2,0.2-3.4,1.1-4.4C3.8,0.5,5,0.1,6.5,0L10,0v4.2H7.2C7.1,4.4,7,5,7,5.8H10v4.4H7.1V19z
      M3.1,18h2.8V9.1h2.9V6.8H5.9l0-0.5c0-1.4,0-2.6,0.7-3.1l0.1-0.1h2.1V1H6.5c-1.2,0.1-2,0.4-2.6,1c-0.8,0.8-1,2.3-0.8,4.2l0.1,0.6
    H1.1v2.3h2V18z"/>
  </g>
</symbol><symbol id="sprite-footer-logo" viewBox="0 0 127.8 23.4">
  <g>
    <path d="M1.6,21.5c-1-1.3-1.6-3.2-1.6-5.6V7.6c0-2.5,0.5-4.4,1.5-5.7C2.6,0.6,4.3,0,6.8,0c2.4,0,4.1,0.6,5.1,1.7
    c1,1.1,1.5,2.8,1.5,4.9v2H8.5V6.3c0-0.9-0.1-1.6-0.3-2S7.6,3.5,6.8,3.5c-0.7,0-1.2,0.2-1.4,0.7S5.1,5.5,5.1,6.4v10.7
    c0,0.9,0.1,1.6,0.4,2.1c0.2,0.5,0.7,0.7,1.4,0.7c0.7,0,1.1-0.2,1.3-0.7c0.2-0.5,0.3-1.2,0.3-2.1v-2.4h4.9v2c0,2.1-0.5,3.8-1.5,5
    c-1,1.2-2.7,1.8-5.1,1.8C4.4,23.4,2.6,22.8,1.6,21.5z"/>
    <path d="M19.3,0.3h5.7l4.2,22.8h-4.6l-0.8-4.8h-3.3l-0.8,4.8H15L19.3,0.3z M23.4,15.3l-1.2-8.9L21,15.3H23.4z"/>
    <path d="M32.7,4.1h-3.4V0.3h11.9v3.7h-3.4v19.1h-5.1V4.1z"/>
    <path d="M50.3,0.3h8.8v2.4h-5.7v7.5h4.6v2.3h-4.6v8.4h5.7v2.3h-8.9V0.3z"/>
    <path d="M61.7,0.3h2.2l6.5,15.1V0.3h2.6v22.8h-2L64.4,7.5v15.6h-2.7V0.3z"/>
    <path d="M76,0.3h8.8v2.4h-5.7v7.5h4.6v2.3h-4.6v8.4h5.7v2.3H76V0.3z"/>
    <path d="M87.4,0.3H92c2.3,0,4,0.5,5.1,1.4c1.1,0.9,1.6,2.5,1.6,4.6c0,2.9-0.9,4.7-2.8,5.3l3.2,11.4H96l-3-10.7h-2.5
    v10.7h-3.2V0.3z M91.8,10.1c1.4,0,2.3-0.3,2.9-0.8c0.6-0.5,0.9-1.5,0.9-3c0-0.9-0.1-1.7-0.3-2.2c-0.2-0.5-0.6-0.9-1.1-1.2
    c-0.5-0.3-1.3-0.4-2.2-0.4h-1.4v7.5H91.8z"/>
    <path d="M102.7,21.4c-0.9-1.3-1.4-3.2-1.4-5.8V8c0-1.8,0.2-3.2,0.5-4.3c0.4-1.1,1-2,1.9-2.6s2.1-0.9,3.7-0.9
    c2.1,0,3.6,0.5,4.5,1.6s1.4,2.7,1.4,5v0.8h-3V6.9c0-1.1-0.1-1.9-0.2-2.5c-0.1-0.6-0.4-1-0.8-1.3c-0.4-0.3-1-0.5-1.9-0.5
    c-0.9,0-1.5,0.2-2,0.6s-0.7,0.9-0.8,1.6s-0.2,1.6-0.2,2.7V16c0,1.7,0.2,3,0.6,3.8c0.4,0.8,1.2,1.1,2.4,1.1c1.2,0,2-0.4,2.4-1.2
    c0.4-0.8,0.7-2.1,0.7-4v-1.6h-2.9v-2.3h5.8v11.3h-2l-0.3-2.6c-0.7,1.9-2.1,2.9-4.1,2.9C105.1,23.4,103.6,22.7,102.7,21.4z"/>
    <path d="M119.8,15.1l-4.9-14.7h3l3.5,11l3.4-11h3l-4.9,14.7v8h-3V15.1z"/>
  </g>
</symbol><symbol id="sprite-form__input-mail" viewBox="0 0 17 13">
  <path d="M15.6,11.6H1.4V5.8H0V13h17V5.8h-1.4V11.6z M0,0v2.3l8.5,7.1L17,2.3V0H0z M15.6,1.6L8.5,7.5L1.4,1.6V1.4h14.2L15.6,1.6z"/>
</symbol><symbol id="sprite-form__input-mobile" viewBox="0 0 20 20">
  <path d="M17.9,9.4H9.4v1.2h8.5l-2.1,2.1l0.9,0.9l3.1-3.1c0.2-0.2,0.2-0.6,0-0.9l-3.1-3.1l-0.9,0.9L17.9,9.4z"/>
  <path d="M8.1,19.4v-6.2c0-0.3-0.3-0.6-0.6-0.6H4.4l0,0H3.1l0,0c0,0.7,0.6,1.2,1.2,1.2h2.5v5H3.1c-1,0.1-1.8-0.7-1.9-1.7
  c0-0.1,0-0.1,0-0.2V3.1c0-1,0.8-1.8,1.7-1.8c0.1,0,0.1,0,0.2,0h3.7v5H4.4c-0.7,0-1.2,0.6-1.2,1.2h4.4c0.3,0,0.6-0.3,0.6-0.6V0.6
  C8.1,0.3,7.8,0,7.5,0H3.1C1.5-0.1,0.1,1.2,0,2.9C0,3,0,3.1,0,3.1v13.7c-0.1,1.7,1.2,3.1,2.9,3.1c0.1,0,0.2,0,0.2,0h4.4
  C7.8,20,8.1,19.7,8.1,19.4z"/>
</symbol><symbol id="sprite-HTML-logo" viewBox="0 0 60 60"><path d="M30.2 5h-.2l-19.7 2.1v36.2l19.7 11.7 19.7-11.7v-36.2l-19.5-2.1zm17 36.8l-17.2 10.2-17.2-10.2v-14.8l17.1 10.2v1.8l-11.7-7v1.8l11.8 7.1v1.9l-11.8-7v1.8l11.8 7 11.9-7.1v-7.6l5.3-3.2v15.1zm-.1-17l-4.7 2.8-2.2 1.3-10.3-6.1v1.8l8.8 5.3h-.1l-.2.1-1.3.7-7.3-4.3v1.8l5.8 3.4-1.4.9-4.3-2.6v1.8l2.9 1.7-2.9 1.7-17-10.1 17-10.2 17.2 10zm.1-1.8l-17.3-10.2-17.1 10.2v-13.6l17.2-1.8 17.2 1.8v13.6z"/></symbol><symbol id="sprite-instagram" viewBox="-3 -3 23 23">
  <g>
    <path d="M14.002-1.501c2.48,0,4.498,2.02,4.498,4.501v11c0,2.481-2.018,4.5-4.498,4.5H3.01
    c-2.48,0-4.498-2.019-4.498-4.5V3c0-2.481,2.018-4.5,4.498-4.5h10.992 M14.002-3H3.01C-0.29-3-2.987-0.301-2.987,3v11.001
    C-2.987,17.299-0.29,20,3.01,20h10.995C17.301,20,20,17.299,20,13.999V3C20-0.301,17.301-3,14.002-3L14.002-3z"/>
    <path d="M8.506,4.078c2.44,0,4.429,1.985,4.429,4.428c0,2.44-1.989,4.43-4.429,4.43c-2.443,0-4.428-1.989-4.428-4.43
    C4.078,6.063,6.063,4.078,8.506,4.078 M8.506,2.578c-3.273,0-5.928,2.654-5.928,5.928s2.654,5.927,5.928,5.927
    c3.274,0,5.926-2.653,5.926-5.927S11.78,2.578,8.506,2.578L8.506,2.578z"/>
    <circle cx="14.646" cy="2.379" r="1.341"/>
  </g>
</symbol><symbol id="sprite-vkontakte" viewBox="0 0 22 12">
  <g>
    <path d="M17.6,12c-0.3,0-0.9-0.1-1.5-0.5c-0.5-0.3-0.9-0.7-1.3-1.2c-0.3-0.3-0.9-0.9-1.1-0.9c-0.2,0.1-0.4,0.7-0.3,1.2
    c0,0.1,0,0.6-0.3,0.9c-0.3,0.3-0.8,0.4-0.9,0.4l-1.4,0c-0.7,0-3.2-0.2-5.4-2.3C2.5,7.1,0.2,2.2,0.1,2C0,1.6-0.1,1.2,0.2,0.9
    c0.3-0.3,0.8-0.4,1-0.4l3,0l0.1,0c0.1,0,0.4,0.1,0.7,0.3c0.3,0.2,0.4,0.5,0.5,0.6c0,0,0.5,1.1,1.1,2c1,1.5,1.4,1.9,1.5,2
    C8.2,5,8.3,4,8.2,3.1c0-0.4-0.1-0.8-0.2-1C7.9,2,7.7,1.9,7.5,1.9L6.9,1.4C6.9,0.9,7.4,0.5,7.8,0.3C8.3,0.1,9.1,0,10.1,0l0.5,0
    c0.9,0,1.2,0.1,1.6,0.1c1.2,0.3,1.2,1.3,1.1,2.5c0,0.4,0,0.8,0,1.2c0,0.1,0,0.2,0,0.4c0,0.3,0,0.8,0.1,1c0.2-0.1,0.6-0.5,1.5-1.9
    c0.6-0.9,1-1.9,1.1-2.1l0,0c0.1-0.3,0.4-0.7,1.2-0.7l3.1,0c0,0,0.1,0,0.3,0c0.7,0,1.2,0.2,1.3,0.7c0.2,0.5,0.1,1.3-1.7,3.5
    c-0.3,0.3-0.5,0.6-0.7,0.9C19,6,18.6,6.6,18.6,6.7c0,0.1,0.5,0.5,0.9,0.9c1.1,0.9,1.9,1.7,2.2,2.3c0.4,0.6,0.3,1,0.2,1.3
    c-0.3,0.7-1.2,0.7-1.4,0.8l-2.8,0C17.7,12,17.6,12,17.6,12z M13.7,8.3c0.7,0,1.2,0.6,1.8,1.2c0.4,0.4,0.7,0.8,1.1,1
    c0.5,0.3,1,0.3,1,0.3l0.1,0l2.8,0c0.1,0,0.3-0.1,0.4-0.1c0,0,0-0.1-0.1-0.1c-0.3-0.5-1-1.3-2-2.1c-0.9-0.7-1.3-1.1-1.4-1.7
    c0-0.6,0.4-1.1,1.2-2.1c0.2-0.2,0.4-0.5,0.7-0.8c1.1-1.4,1.4-2,1.5-2.3c-0.1,0-0.5,0-0.5,0l-3.2,0c-0.1,0-0.2,0-0.2,0
    C16.9,2,16.4,3.1,15.8,4c-1.4,2.1-2,2.4-2.5,2.4c-0.1,0-0.3,0-0.4-0.1c-0.7-0.4-0.7-1.4-0.7-2.1c0-0.1,0-0.2,0-0.3
    c0-0.5,0-0.9,0-1.3c0.1-1.3,0-1.3-0.3-1.4c-0.3-0.1-0.5-0.1-1.4-0.1l-0.5,0c-0.5,0-1,0-1.4,0.1c0.1,0.1,0.1,0.1,0.2,0.2
    c0.4,0.5,0.4,1.5,0.4,1.7c0.1,1.3,0,2.9-0.7,3.3C8.4,6.4,8.3,6.5,8.1,6.5C7.5,6.5,6.8,5.8,5.6,4C5,2.9,4.5,1.8,4.5,1.8
    c0,0,0-0.1-0.1-0.1c-0.1,0-0.2-0.1-0.2-0.1l-2.9,0c0,0,0,0-0.1,0c0.4,0.9,2.5,5,4.8,7.2c2,1.9,4.3,2,4.7,2l1.4,0c0,0,0.2,0,0.2-0.1
    c0,0,0,0,0-0.1c0-0.2,0-2,1.2-2.3C13.5,8.3,13.6,8.3,13.7,8.3z"/>
  </g>
</symbol></svg>